HIERARCHY
ROOT root
{
	OFFSET 0.000000 0.000000 0.000000
	CHANNELS 6 Xposition Yposition Zposition Zrotation Yrotation Xrotation
	JOINT lhip
	{
		OFFSET 0.058581 -0.082280 -0.017664
		CHANNELS 3 Zrotation Yrotation Xrotation
		JOINT lknee
		{
			OFFSET 0.043451 -0.386469 0.008037
			CHANNELS 3 Zrotation Yrotation Xrotation
			JOINT lankle
			{
				OFFSET -0.014790 -0.426874 -0.037428
				CHANNELS 3 Zrotation Yrotation Xrotation
				JOINT ltoe
				{
					OFFSET 0.041054 -0.060286 0.122042
					CHANNELS 3 Zrotation Yrotation Xrotation
					End Site
					{
						OFFSET 0.000000 0.000000 0.000000
					}
				}
			}
		}
	}
	JOINT rhip
	{
		OFFSET -0.060310 -0.090513 -0.013543
		CHANNELS 3 Zrotation Yrotation Xrotation
		JOINT rknee
		{
			OFFSET -0.043257 -0.383688 -0.004843
			CHANNELS 3 Zrotation Yrotation Xrotation
			JOINT rankle
			{
				OFFSET 0.019056 -0.420046 -0.034562
				CHANNELS 3 Zrotation Yrotation Xrotation
				JOINT rtoe
				{
					OFFSET -0.034840 -0.062106 0.130323
					CHANNELS 3 Zrotation Yrotation Xrotation
					End Site
					{
						OFFSET 0.000000 0.000000 0.000000
					}
				}
			}
		}
	}
	JOINT lowerback
	{
		OFFSET 0.004439 0.124404 -0.038385
		CHANNELS 3 Zrotation Yrotation Xrotation
		JOINT upperback
		{
			OFFSET 0.004488 0.137956 0.026820
			CHANNELS 3 Zrotation Yrotation Xrotation
			JOINT chest
			{
				OFFSET -0.002265 0.056032 0.002855
				CHANNELS 3 Zrotation Yrotation Xrotation
				JOINT lowerneck
				{
					OFFSET -0.013390 0.211636 -0.033468
					CHANNELS 3 Zrotation Yrotation Xrotation
					JOINT upperneck
					{
						OFFSET 0.010113 0.088937 0.050410
						CHANNELS 3 Zrotation Yrotation Xrotation
						End Site
						{
							OFFSET 0.000000 0.000000 0.000000
						}
					}
				}
				JOINT lclavicle
				{
					OFFSET 0.071702 0.114000 -0.018898
					CHANNELS 3 Zrotation Yrotation Xrotation
					JOINT lshoulder
					{
						OFFSET 0.122921 0.045205 -0.019046
						CHANNELS 3 Zrotation Yrotation Xrotation
						JOINT lelbow
						{
							OFFSET 0.255332 -0.015649 -0.022946
							CHANNELS 3 Zrotation Yrotation Xrotation
							JOINT lwrist
							{
								OFFSET 0.265709 0.012698 -0.007375
								CHANNELS 3 Zrotation Yrotation Xrotation
								End Site
								{
									OFFSET 0.000000 0.000000 0.000000
								}
							}
						}
					}
				}
				JOINT rclavicle
				{
					OFFSET -0.082954 0.112472 -0.023707
					CHANNELS 3 Zrotation Yrotation Xrotation
					JOINT rshoulder
					{
						OFFSET -0.113228 0.046853 -0.008472
						CHANNELS 3 Zrotation Yrotation Xrotation
						JOINT relbow
						{
							OFFSET -0.260127 -0.014369 -0.031269
							CHANNELS 3 Zrotation Yrotation Xrotation
							JOINT rwrist
							{
								OFFSET -0.269108 0.006794 -0.006027
								CHANNELS 3 Zrotation Yrotation Xrotation
								End Site
								{
									OFFSET 0.000000 0.000000 0.000000
								}
							}
						}
					}
				}
			}
		}
	}
}
MOTION
Frames: 17
Frame Time: 0.033333
-0.940744 -0.282230 0.978473 175.164576 2.586938 91.140182 10.934783 4.463620 -2.871216 -3.429534 -2.640532 4.668144 2.646896 9.398149 -9.497832 0.000000 -0.000000 0.000000 -8.228640 -3.662437 -10.298671 1.258493 -2.567612 15.585076 5.290779 -3.684276 -6.521831 0.000000 -0.000000 0.000000 1.087664 1.134074 9.230725 2.931081 -1.335649 1.897975 -1.939522 -0.662889 -4.587667 2.540540 1.018532 -4.599697 0.651246 -3.266574 8.109719 -29.219576 -2.487390 0.922862 -51.294056 -7.949063 8.722760 20.176719 -25.798517 -11.005831 6.051819 -8.745316 -0.085720 28.215038 8.638495 3.745526 53.021448 8.787638 15.016049 -11.622164 29.528305 3.017687 0.633804 8.045734 13.423730 
-0.935527 -0.281300 0.978646 174.974827 2.613079 91.105440 11.151013 4.450631 -2.671181 -3.196902 -2.564425 4.629787 2.506655 9.638952 -9.384536 0.000000 -0.000000 0.000000 -7.893887 -3.463560 -10.108579 1.413887 -2.311999 15.464123 5.124517 -3.876821 -6.697404 0.000000 -0.000000 0.000000 1.219958 0.937941 9.219988 2.783499 -1.253255 1.856633 -1.877110 -0.524764 -4.635129 2.177204 0.951834 -4.600639 0.475756 -2.883183 8.174153 -29.406550 -2.534642 1.013326 -51.620479 -7.792911 8.666764 20.296899 -24.395572 -11.422694 6.220930 -8.447232 -0.811939 28.075632 8.998342 3.846354 52.999142 8.660718 15.348480 -11.161300 28.377209 3.455817 0.631660 7.986633 13.051044 
-0.930252 -0.280702 0.978896 174.973363 2.625259 91.083778 11.439325 4.489268 -2.469576 -3.081386 -2.584861 4.473745 2.349540 9.661339 -9.270485 0.000000 -0.000000 0.000000 -7.520882 -3.301169 -10.095480 1.393220 -2.335008 15.658917 4.958484 -3.959259 -6.980641 0.000000 -0.000000 0.000000 1.328318 0.713649 9.277784 2.757798 -1.160463 1.688847 -1.853123 -0.472402 -4.588386 1.774922 0.919202 -4.586556 0.198794 -2.782175 8.145715 -29.519935 -2.691958 1.137168 -52.233249 -7.737721 8.614111 20.038322 -22.535086 -12.108076 6.347207 -8.153872 -1.657403 27.963507 9.249400 3.883051 53.067454 8.633481 15.368240 -11.226887 26.511908 3.243040 0.857739 7.781447 12.804172 
-0.922777 -0.279927 0.979004 175.374250 2.638407 91.090728 11.943943 4.684969 -2.293361 -3.053110 -2.880819 4.199137 2.099735 9.361273 -9.082171 0.000000 -0.000000 0.000000 -7.024590 -3.428916 -10.236671 1.396657 -2.629118 16.364301 4.647082 -3.898917 -7.636837 0.000000 -0.000000 0.000000 1.609084 0.480620 9.358964 2.794619 -1.250349 1.498664 -1.855558 -0.502081 -4.596584 1.052858 0.703418 -4.485269 -0.370811 -2.935544 7.932851 -29.683869 -3.118819 1.280969 -53.531958 -7.838684 8.332839 19.093889 -19.052220 -14.524834 7.172113 -7.352701 -3.983353 27.838898 9.361803 3.882428 52.848673 8.406403 14.935767 -11.457665 23.569605 1.786980 0.838348 7.305727 12.419667 
-0.920711 -0.279535 0.978906 175.603458 2.570176 91.076187 11.989872 4.717876 -2.240338 -3.018324 -3.025406 4.108153 2.055131 9.272309 -9.016133 0.000000 -0.000000 0.000000 -7.000217 -3.504928 -10.264253 1.463020 -2.716449 16.644678 4.513623 -3.928102 -7.841960 0.000000 -0.000000 0.000000 1.690741 0.406675 9.390258 2.784667 -1.312889 1.465095 -1.875027 -0.532775 -4.598560 0.799956 0.593626 -4.466624 -0.535272 -3.024652 7.822957 -29.771603 -3.276804 1.312183 -54.028339 -7.975034 8.173862 18.782778 -17.725169 -15.546093 7.410650 -7.077476 -4.819737 27.808154 9.362569 3.862310 52.765292 8.309870 14.720768 -11.635469 22.466613 1.095756 0.784272 7.200622 12.233976 
-0.917161 -0.278650 0.978501 176.148505 2.296031 91.023731 11.852511 4.669393 -2.153084 -2.893123 -3.351730 3.956130 2.030942 9.200368 -8.893843 0.000000 -0.000000 0.000000 -7.135469 -3.574517 -10.287233 1.583444 -2.838725 17.214809 4.252666 -4.194161 -8.270451 0.000000 -0.000000 0.000000 1.720998 0.213178 9.489673 2.749064 -1.385857 1.354963 -1.915856 -0.594481 -4.506582 0.361961 0.405803 -4.552287 -0.785904 -3.250518 7.620909 -29.971322 -3.542695 1.336966 -55.067010 -8.386179 7.883823 18.296921 -15.033447 -17.203965 7.493282 -6.724511 -5.986934 27.753037 9.343057 3.724264 52.785718 8.217823 14.215837 -12.372735 19.719949 -0.322440 0.907736 7.164474 11.930030 
-0.913728 -0.277899 0.978072 176.747085 2.063475 91.006643 11.756470 4.560417 -2.187493 -2.793659 -3.720307 3.921072 1.968883 9.163247 -8.819169 0.000000 -0.000000 0.000000 -7.126792 -3.581656 -10.326529 1.534879 -2.928420 17.744878 4.034924 -4.628134 -8.755033 0.000000 -0.000000 0.000000 1.684417 0.026769 9.593859 2.797831 -1.416607 1.189856 -1.928551 -0.628161 -4.345059 0.053894 0.275837 -4.776371 -0.975269 -3.440046 7.517824 -30.194956 -3.711797 1.348702 -56.044448 -8.719737 7.867197 17.885229 -12.814461 -17.803926 7.384731 -6.552413 -6.360123 27.669171 9.239821 3.517522 52.760280 8.140889 13.650033 -13.114773 16.784362 -1.476056 1.129763 7.117143 11.710356 
-0.910215 -0.277203 0.977985 177.340619 2.084987 91.057227 11.982797 4.545988 -2.343672 -2.773000 -4.115551 3.999201 1.780939 9.024113 -8.802394 0.000000 -0.000000 0.000000 -6.734386 -3.662549 -10.376675 1.369069 -2.996841 18.143605 3.861036 -5.022244 -9.167211 0.000000 -0.000000 0.000000 1.844955 -0.042939 9.633121 2.938654 -1.506224 1.096779 -1.932387 -0.633416 -4.315302 -0.172724 0.086287 -4.979707 -1.114348 -3.391209 7.522200 -30.472240 -3.816727 1.435099 -56.810399 -8.673771 8.279720 17.364137 -11.514283 -17.431496 7.751655 -6.266491 -6.364272 27.488059 8.993823 3.449644 52.142855 7.661893 13.204009 -12.917436 14.941762 -2.246077 0.776716 6.687455 11.112376 
-0.907376 -0.276216 0.978227 177.881002 2.207968 91.121237 12.264658 4.635038 -2.453830 -2.735574 -4.485511 4.034095 1.562028 8.851519 -8.795635 0.000000 -0.000000 0.000000 -6.304255 -3.792936 -10.375599 1.281139 -3.052090 18.387688 3.724311 -5.342059 -9.414780 0.000000 -0.000000 0.000000 2.208512 -0.031287 9.620329 3.023794 -1.612799 1.096830 -1.976977 -0.638879 -4.444458 -0.362061 -0.206571 -5.075544 -1.133470 -3.098991 7.579073 -30.753853 -3.882663 1.619296 -57.363553 -8.313386 8.943025 16.722684 -10.977138 -16.671816 8.482114 -5.929636 -6.399602 27.243993 8.683900 3.612018 51.014493 6.696279 13.013229 -11.831901 14.375928 -2.762745 -0.104179 5.994735 9.941297 
-0.905616 -0.274946 0.978403 178.341674 2.174466 91.161154 12.259572 4.700189 -2.429084 -2.622290 -4.772532 3.919662 1.430017 8.798836 -8.752943 0.000000 -0.000000 0.000000 -6.212896 -3.864723 -10.360940 1.307058 -3.146665 18.614754 3.632166 -5.624243 -9.610500 0.000000 -0.000000 0.000000 2.499103 -0.044611 9.602808 3.001145 -1.607039 1.046314 -2.060953 -0.656736 -4.512913 -0.471375 -0.436288 -5.131341 -1.023494 -2.824637 7.632777 -30.913586 -3.876038 1.807084 -57.835449 -7.981637 9.481832 16.102340 -10.726368 -16.024537 8.794539 -5.930086 -6.519783 27.028819 8.444415 3.850370 50.100190 5.735903 12.945548 -10.996673 13.838033 -3.175553 -0.588510 5.583888 8.786702 
-0.904316 -0.273760 0.978262 178.725756 2.010400 91.201659 12.083965 4.680560 -2.378525 -2.516104 -4.967222 3.757735 1.351843 8.833856 -8.700467 0.000000 -0.000000 0.000000 -6.334611 -3.888283 -10.435580 1.346580 -3.296401 18.956993 3.554784 -5.838047 -9.866682 0.000000 -0.000000 0.000000 2.577399 -0.072368 9.571632 2.977287 -1.498648 0.901778 -2.128777 -0.664337 -4.408832 -0.450105 -0.448778 -5.212021 -0.870259 -2.751608 7.677698 -30.927425 -3.767130 1.908155 -58.251084 -7.889695 9.706427 15.592230 -10.488507 -15.640718 8.443439 -6.362029 -6.649643 26.880584 8.278404 3.971462 49.749545 5.156856 12.807495 -10.992206 12.582910 -3.554132 -0.320796 5.600230 8.185799 
-0.902988 -0.272799 0.977922 179.055542 1.870337 91.237180 11.987339 4.594608 -2.371549 -2.490848 -5.112802 3.677427 1.256064 8.837924 -8.693975 0.000000 -0.000000 0.000000 -6.422122 -3.951374 -10.562931 1.382509 -3.450641 19.359397 3.437898 -5.965271 -10.128649 0.000000 -0.000000 0.000000 2.542232 -0.064788 9.544653 3.026068 -1.390519 0.761624 -2.136244 -0.651825 -4.258599 -0.341079 -0.320624 -5.307869 -0.798029 -2.800010 7.766931 -30.958634 -3.588731 1.930130 -58.436192 -7.921796 9.694997 15.183904 -10.359309 -15.397824 7.920700 -6.839241 -6.727787 26.742436 8.065234 3.965724 49.646267 4.834418 12.613226 -11.322030 11.271624 -3.795125 0.177306 5.734019 8.083232 
-0.901990 -0.271839 0.977583 179.348504 1.773001 91.204805 11.947051 4.490063 -2.324912 -2.497356 -5.255112 3.675287 1.183764 8.793325 -8.743962 0.000000 -0.000000 0.000000 -6.483274 -4.035756 -10.576718 1.441286 -3.559104 19.662887 3.295059 -6.099927 -10.309272 0.000000 -0.000000 0.000000 2.558004 -0.038514 9.589963 3.032065 -1.326847 0.705915 -2.111276 -0.649963 -4.220058 -0.226701 -0.306398 -5.352504 -0.763778 -2.799032 7.899688 -31.080258 -3.434001 1.944123 -58.324937 -7.905636 9.648718 14.908489 -10.394363 -15.134817 7.717539 -6.996792 -6.738152 26.622175 7.769699 3.945503 49.430522 4.487818 12.484333 -11.406949 10.732987 -3.872901 0.254622 5.656224 8.054869 
-0.901652 -0.270837 0.977311 179.618760 1.657943 91.114553 11.827805 4.411748 -2.252683 -2.465000 -5.414182 3.722098 1.182663 8.775312 -8.818315 0.000000 -0.000000 0.000000 -6.592224 -4.105813 -10.470520 1.458466 -3.615865 19.871765 3.199151 -6.274062 -10.442835 0.000000 -0.000000 0.000000 2.632725 -0.018668 9.677217 2.971943 -1.304251 0.700372 -2.107043 -0.696922 -4.262620 -0.176049 -0.474982 -5.305051 -0.678012 -2.759112 7.997250 -31.172069 -3.359659 1.941715 -58.082939 -7.810047 9.657567 14.809692 -10.475636 -14.899490 7.747036 -6.940920 -6.619055 26.587805 7.510087 3.929564 49.118572 4.123867 12.405658 -11.362851 10.751437 -3.910345 0.062175 5.543491 8.026706 
-0.901805 -0.269732 0.977003 179.889750 1.564199 91.014689 11.694840 4.364611 -2.183544 -2.423105 -5.592828 3.795628 1.249406 8.779603 -8.912506 0.000000 -0.000000 0.000000 -6.676896 -4.181309 -10.348926 1.393986 -3.621426 20.078995 3.194563 -6.416978 -10.565381 0.000000 -0.000000 0.000000 2.712518 0.018343 9.737275 2.926248 -1.337645 0.674596 -2.119822 -0.791948 -4.282655 -0.140684 -0.698427 -5.201182 -0.533175 -2.697795 8.085021 -31.184818 -3.389891 1.928792 -57.812674 -7.745744 9.671484 14.812537 -10.481064 -14.798378 7.898713 -6.795256 -6.472917 26.607087 7.356128 3.917634 48.972808 3.921035 12.311994 -11.458068 10.909354 -4.060825 -0.171603 5.500970 7.948788 
-0.902002 -0.268653 0.976637 -179.859775 1.567251 90.943914 11.714472 4.356539 -2.153846 -2.466439 -5.804324 3.893342 1.311285 8.750078 -9.009513 0.000000 -0.000000 0.000000 -6.635088 -4.294655 -10.306396 1.290473 -3.585796 20.341276 3.253037 -6.465393 -10.672766 0.000000 -0.000000 0.000000 2.753094 0.082925 9.738747 3.029327 -1.427470 0.565343 -2.121877 -0.879327 -4.191442 -0.078269 -0.777835 -5.166619 -0.502335 -2.629392 8.300302 -31.170850 -3.470236 1.893064 -57.510786 -7.760914 9.656620 14.830355 -10.490103 -14.800024 8.204613 -6.612068 -6.410257 26.579578 7.271069 3.862780 49.010370 3.917711 12.242731 -11.639353 11.177038 -4.265878 -0.309815 5.503384 7.801291 
-0.902240 -0.267619 0.976338 -179.687412 1.622608 90.871049 11.843757 4.357244 -2.095340 -2.588124 -5.977735 3.989664 1.334101 8.667323 -9.125364 0.000000 -0.000000 0.000000 -6.577458 -4.386158 -10.260646 1.256031 -3.585353 20.569381 3.236421 -6.465715 -10.744099 0.000000 -0.000000 0.000000 2.753806 0.116768 9.753233 3.192772 -1.474395 0.395126 -2.077305 -0.925719 -4.060342 0.010630 -0.675476 -5.195308 -0.640581 -2.613535 8.643143 -31.154492 -3.541271 1.881154 -57.167685 -7.831596 9.592832 14.868349 -10.629963 -14.752276 8.559954 -6.434971 -6.436661 26.529726 7.179591 3.730935 49.087604 3.991726 12.278642 -11.744064 11.724751 -4.311629 -0.382550 5.485127 7.602881 
